<?xml version="1.0" encoding="UTF-8"?>
<!DOCTYPE svg PUBLIC "-//W3C//DTD SVG 1.1//EN" "http://www.w3.org/Graphics/SVG/1.1/DTD/svg11.dtd">
<!-- Creator: CorelDRAW X6 -->
<svg xmlns="http://www.w3.org/2000/svg" xml:space="preserve" width="215.9mm" height="279.4mm" version="1.1" style="shape-rendering:geometricPrecision; text-rendering:geometricPrecision; image-rendering:optimizeQuality; fill-rule:evenodd; clip-rule:evenodd"
viewBox="0 0 21590 27940"
 xmlns:xlink="http://www.w3.org/1999/xlink">
 <defs>
  <style type="text/css">
   <![CDATA[
    .str0 {stroke:#373435;stroke-width:20}
    .fil0 {fill:#373435}
   ]]>
  </style>
 </defs>
 <g id="Capa_x0020_1">
  <metadata id="CorelCorpID_0Corel-Layer"/>
  <path class="fil0 str0" d="M5007 634c2046,0 3704,1627 3704,3634 0,2007 -1658,3634 -3704,3634 -2046,0 -3704,-1627 -3704,-3634 0,-2007 1658,-3634 3704,-3634zm2268 4800l-744 0c-45,0 -80,11 -102,31 -23,20 -41,56 -56,109l-72 0 0 -699 72 0c15,54 33,91 56,111 23,19 56,29 102,29l1425 0 0 72c-52,14 -88,34 -109,57 -21,23 -31,58 -31,104l0 617c0,46 10,80 30,104 20,23 56,42 110,57l0 54c-571,328 -1125,492 -1660,492 -357,0 -666,-62 -927,-187l-933 0 0 -72c92,-14 139,-58 139,-135 0,-28 -22,-89 -66,-185l-805 -1736c-12,28 -25,53 -39,76 -86,137 -212,242 -380,317 -168,74 -363,111 -586,111 -128,0 -239,-8 -333,-25 -94,-17 -247,-57 -461,-120 -132,-38 -226,-57 -282,-57 -49,0 -93,20 -135,62l-66 -26 284 -762 66 25c-2,17 -2,32 -2,44 0,60 38,116 112,168 80,51 185,95 318,130 132,35 260,53 381,53 197,0 340,-45 429,-135 45,-46 76,-99 92,-162 16,-62 24,-156 24,-283l0 -742c-15,-299 -23,-649 -23,-1054 0,-16 -1,-30 -4,-43 -1,-2 -3,-4 -4,-5 -20,-23 -56,-42 -109,-57l0 -49c-7,-2 -15,-5 -23,-7l0 -72 1877 0c219,0 392,15 521,44 129,29 242,80 341,152 102,74 180,173 238,295 57,126 86,260 86,401 0,203 -54,380 -163,534 -94,130 -218,223 -373,278 -155,55 -371,83 -649,83l-570 0 0 20c-97,19 -145,60 -145,123 0,41 17,99 50,174l795 1772 795 -1772c145,-319 305,-333 463,-369 80,-22 175,-38 287,-45 171,-11 334,16 486,47 152,32 325,84 518,159 100,40 171,59 214,59 31,0 67,-17 108,-50l63 33 -354 720 -64 -33c-2,-48 -8,-83 -20,-104 -12,-22 -38,-47 -80,-78 -89,-68 -221,-125 -394,-172 -174,-47 -338,-71 -492,-71 -42,0 -80,6 -116,16l-883 1906c9,10 20,20 32,31 209,180 484,269 826,269 167,0 331,-20 492,-58 162,-38 302,-90 420,-157l0 -412zm-3456 -2507l1004 0c200,0 341,-21 421,-64 52,-28 93,-72 125,-133 32,-61 47,-128 47,-202 0,-71 -16,-138 -47,-199 -32,-61 -73,-105 -125,-133 -79,-43 -220,-64 -421,-64l-1004 0 0 794z"/>
 </g>
</svg>
